<svg width="213" height="761" viewBox="0 0 213 761" fill="none" xmlns="http://www.w3.org/2000/svg">
<g clip-path="url(#clip0_218_478)" filter="url(#filter0_d_218_478)">
<path d="M71.9215 1.96499C76.7575 -1.90674 82.5973 0.65709 87.8485 3.53698C93.1024 6.41686 98.1353 9.60658 103.437 19.2547C109.349 30.0132 119.777 61.4965 121.567 67.982C122.062 69.7785 121.737 69.5248 122.075 71.1259C122.825 74.6837 123.9 83.4024 126.819 89.9877C132.575 102.975 152.068 117.876 159.69 132.427C164.808 142.2 167.419 151.397 170.534 162.293C173.38 172.248 175.956 185.691 177.819 194.516C179.205 201.076 179.603 204.206 181.039 211.02C183.076 220.689 186.951 235.128 189.341 247.957C191.598 260.071 193.792 273.406 195.102 285.683C196.244 296.387 197.033 308.93 197.135 317.12C197.209 323.026 196.109 325.348 196.457 331.266C197.015 340.752 200.788 354.862 202.557 368.989C204.437 384.004 206.275 405.946 207.301 419.289C208.043 428.937 208.378 431.657 208.657 442.866C209.105 460.909 209.124 500.653 208.657 523.031C208.281 541.036 207.921 555.616 206.623 568.614C205.413 580.743 204.327 587.803 201.371 599.266C196.65 617.57 187.23 642.624 177.989 663.711C166.95 688.9 147.683 723.989 138.679 737.588C133.216 745.841 132.128 747.66 126.819 750.164C118.951 753.871 103.977 754.019 94.2872 750.164C85.8425 746.804 79.4316 741.903 71.5826 731.3C62.9953 719.699 53.1205 698.663 44.812 681.001C37.045 664.493 28.9871 646.552 23.124 629.132C18.3036 614.811 14.5605 602.088 11.4328 585.904C8.49475 570.704 5.77411 553.612 4.6552 535.607C3.55735 517.937 4.03836 501.918 4.6552 479.02C5.47825 448.476 7.46997 403.086 10.4161 365.848C13.4837 327.072 21.4627 278.746 22.9546 251.101C23.883 233.895 21.9271 226.162 22.6157 211.806C23.4558 194.289 25.9594 172.899 28.7155 153.647C31.7768 132.261 36.3672 108.03 40.5757 89.9877C44.53 73.0369 51.7061 53.4703 53.1142 47.5483C53.5544 45.6977 53.2532 45.9805 53.6225 44.4043C54.5075 40.6283 57.1438 30.3667 59.7223 23.9707C62.9397 15.9881 67.4512 5.54354 71.9215 1.96499ZM74.8021 64.838C70.968 68.5143 65.377 85.6356 63.9582 89.9877C63.444 91.5659 63.7892 91.1438 63.2804 93.1316C61.7037 99.2927 54.087 123.251 50.403 138.715C47.0857 152.642 44.3005 166.732 41.9313 181.154C39.7325 194.539 36.9316 210.556 36.5093 222.024C36.1951 230.551 37.6982 236.639 37.8649 244.029C38.029 251.311 38.3271 254.769 37.526 266.035C35.8624 289.43 26.821 348.396 23.6324 387.067C20.8015 421.393 19.2163 462.333 18.5493 486.094C18.1158 501.52 18.0109 511.589 18.5493 520.673C18.9855 528.044 19.2603 530.567 20.9212 537.963C24.1981 552.56 33.4502 581.822 40.9146 600.838C49.0106 621.461 60.4167 642.171 68.0245 655.853C73.9845 666.57 78.0405 674.191 83.2738 679.431C88.5434 684.706 93.4238 685.875 99.5398 687.289C106.717 688.95 117.644 690.196 123.938 687.289C128.532 685.17 129.745 683.847 134.782 676.287C143.218 663.626 161.764 629.177 172.059 605.554C180.492 586.199 189.911 563.988 193.069 547.395C194.829 538.144 194.426 533.648 194.763 522.245C195.264 505.319 195.153 465.987 194.763 451.512C194.545 443.444 194.638 444.455 193.747 435.794C191.668 415.608 179.44 341.029 178.497 319.478C178.061 309.495 180.077 306.703 179.853 300.614C179.612 294.098 178.438 290.33 176.803 281.753C173.995 267.023 166.77 232.235 162.909 217.308C160.141 206.603 159.747 203.434 155.793 195.302C148.464 180.229 121.183 150.284 117.5 141.859C116.526 139.63 117.05 139.686 116.484 137.143C115.311 131.876 112.739 117.815 110.045 108.849C106.858 98.2447 102.153 85.8227 98.1841 78.9838C94.4701 72.5877 90.8435 70.3441 87.0013 67.982C83.0559 65.5575 78.648 61.1493 74.8021 64.838ZM150.783 497.372C148.586 514.741 141.114 553.997 136.72 572.035C133.262 586.233 129.986 595.324 126.893 601.901C124.277 607.461 122.721 608.143 119.438 611.33C114.678 615.953 106.209 623.216 100.122 625.478C94.5149 627.56 89.1777 628.626 84.195 625.478C79.4997 622.511 74.764 616.034 70.9792 608.186C67.6063 601.196 65.2416 594.642 62.3381 582.251C58.759 566.982 53.822 537.289 51.4941 519.378C49.7812 506.203 48.8748 494.201 48.444 484.798C48.1275 477.889 48.0481 473.273 48.444 467.507C48.8304 461.882 49.6611 454.436 50.7625 449.857C48.0324 449.693 45.4978 450.063 43.529 451.556C37.7838 455.912 32.3049 472.345 29.2964 475.134C27.6418 476.666 27.068 476.866 25.9079 475.134C24.5388 473.09 22.5529 468.17 21.6716 461.772C20.7427 455.026 20.3312 442.754 20.6553 435.05C20.9507 428.022 21.4407 422.79 23.1966 416.974C26.2356 406.912 33.6708 393.833 40.4793 388.681C48.6753 382.48 64.6431 383.15 69.6222 388.681C72.0125 391.336 72.6437 395.085 73.5191 400.471C74.3915 405.835 74.9532 413.916 74.8748 420.904C74.7918 428.303 73.8267 438.545 72.8418 443.696C71.9954 448.121 71.596 449.755 69.6222 451.556C67.8416 453.18 64.3347 452.56 60.3235 451.637C60.4324 452.186 60.5391 452.762 60.6436 453.361C61.8683 460.383 61.8288 473.117 63.3543 484.798C65.3725 500.248 68.9153 524.711 72.6737 537.453C76.3438 549.9 81.0925 557.099 85.5506 561.031C90.0155 564.969 94.2334 563.252 99.4443 561.031C105.631 558.397 115.141 553.481 120.454 543.741C124.579 536.181 126.646 527.916 129.774 513.876C132.024 503.776 134.752 484.778 137.142 468.733C136.151 467.155 135.303 465.641 134.685 464.315C132.903 460.491 132.177 458.22 131.465 452.525C130.646 445.962 130.094 433.684 130.449 425.803C130.785 418.332 132.224 410.16 133.329 406.156C134.246 402.831 135.14 402.134 136.379 401.44C137.944 400.562 139.652 400.473 142.14 403.012C145.882 406.833 154.7 417.045 157.219 428.161C158.903 435.587 159.148 445.796 158.914 454.097C158.675 462.576 157.185 473.651 155.695 478.46C154.603 481.985 153.429 483.266 151.849 483.374C151.707 487.329 151.453 492.084 150.783 497.372ZM133.254 202.933C134.974 203.312 137.917 208.78 139.184 214.723C140.302 219.967 140.559 226.588 140.878 235.157C141.295 246.321 141.521 265.459 140.878 277.596C140.309 288.34 139.193 299.818 137.659 305.104C136.244 309.98 133.865 311.373 132.237 309.82C130.656 308.31 128.935 302.831 128.001 296.458C127.012 289.706 126.735 276.498 126.646 269.736C126.583 265.029 127.05 261.171 126.985 258.734C126.943 257.196 126.71 257.56 126.646 255.591C126.498 251.051 126.433 235.298 126.985 227.297C127.479 220.121 128.433 213.29 129.526 209.221C130.552 205.404 131.837 202.623 133.254 202.933ZM74.0593 177.183C75.2186 176.576 76.6804 176.759 77.7868 178.755C78.8797 180.724 79.9534 184.997 80.6675 188.971C81.3323 192.67 81.7124 193.892 82.0231 201.546C82.7049 218.364 82.9237 283.106 82.0231 302.145C81.5439 312.271 81.0593 315.939 79.8202 320.221C78.3678 325.238 75.2235 329.44 73.3815 328.078C71.7229 326.854 70.0086 319.383 69.1457 314.719C68.4899 311.173 68.3666 310.568 68.129 303.715C67.5727 287.662 67.0657 223.178 68.129 203.118C68.7391 191.609 69.8885 186.136 71.0097 181.899C71.9201 178.455 72.9687 177.752 74.0593 177.183Z" fill="#FFF900" stroke="black" stroke-width="2"/>
</g>
<defs>
<filter id="filter0_d_218_478" x="0" y="0" width="213" height="761" filterUnits="userSpaceOnUse" color-interpolation-filters="sRGB">
<feFlood flood-opacity="0" result="BackgroundImageFix"/>
<feColorMatrix in="SourceAlpha" type="matrix" values="0 0 0 0 0 0 0 0 0 0 0 0 0 0 0 0 0 0 127 0" result="hardAlpha"/>
<feOffset dy="4"/>
<feGaussianBlur stdDeviation="2"/>
<feComposite in2="hardAlpha" operator="out"/>
<feColorMatrix type="matrix" values="0 0 0 0 0 0 0 0 0 0 0 0 0 0 0 0 0 0 0.25 0"/>
<feBlend mode="normal" in2="BackgroundImageFix" result="effect1_dropShadow_218_478"/>
<feBlend mode="normal" in="SourceGraphic" in2="effect1_dropShadow_218_478" result="shape"/>
</filter>
<clipPath id="clip0_218_478">
<rect width="205" height="753" fill="white" transform="translate(4)"/>
</clipPath>
</defs>
</svg>
