<svg width="112" height="71" viewBox="0 0 112 71" fill="none" xmlns="http://www.w3.org/2000/svg">
<ellipse cx="55.9226" cy="53.4975" rx="17.5" ry="55.5" transform="rotate(-90 55.9226 53.4975)" fill="black"/>
<ellipse cx="55.9226" cy="53.4975" rx="6.73077" ry="21.3462" transform="rotate(-90 55.9226 53.4975)" fill="#454545"/>
<ellipse cx="55.9226" cy="53.4975" rx="3.36538" ry="10.6731" transform="rotate(-90 55.9226 53.4975)" fill="white"/>
<path d="M55.9227 44.2244C64.1642 44.2244 71.6194 45.2779 77.0092 46.9774C79.705 47.8275 81.8757 48.8365 83.3692 49.9499C84.8654 51.0653 85.6573 52.2658 85.6573 53.4975C85.6573 54.7292 84.8654 55.9297 83.3692 57.0451C81.8757 58.1585 79.705 59.1675 77.0092 60.0176C71.6194 61.7171 64.1642 62.7706 55.9227 62.7706C47.6813 62.7706 40.226 61.7171 34.8362 60.0176C32.1404 59.1675 29.9697 58.1585 28.4762 57.0451C26.98 55.9297 26.1881 54.7292 26.1881 53.4975C26.1881 52.2658 26.98 51.0653 28.4762 49.9499C29.9697 48.8365 32.1404 47.8275 34.8362 46.9774C40.226 45.2779 47.6813 44.2244 55.9227 44.2244Z" stroke="white" stroke-width="0.3"/>
<path d="M55.9227 44.2244C64.1642 44.2244 71.6194 45.2779 77.0092 46.9774C79.705 47.8275 81.8757 48.8365 83.3692 49.9499C84.8654 51.0653 85.6573 52.2658 85.6573 53.4975C85.6573 54.7292 84.8654 55.9297 83.3692 57.0451C81.8757 58.1585 79.705 59.1675 77.0092 60.0176C71.6194 61.7171 64.1642 62.7706 55.9227 62.7706C47.6813 62.7706 40.226 61.7171 34.8362 60.0176C32.1404 59.1675 29.9697 58.1585 28.4762 57.0451C26.98 55.9297 26.1881 54.7292 26.1881 53.4975C26.1881 52.2658 26.98 51.0653 28.4762 49.9499C29.9697 48.8365 32.1404 47.8275 34.8362 46.9774C40.226 45.2779 47.6813 44.2244 55.9227 44.2244Z" stroke="white" stroke-width="0.3"/>
<path d="M55.9227 42.2052C65.9326 42.2052 74.9888 43.4847 81.5374 45.5496C84.8127 46.5823 87.4523 47.8089 89.2698 49.1639C91.0901 50.5209 92.0612 51.987 92.0612 53.4975C92.0612 55.008 91.0901 56.4741 89.2698 57.8311C87.4523 59.1861 84.8127 60.4126 81.5374 61.4454C74.9888 63.5103 65.9326 64.7898 55.9227 64.7898C45.9129 64.7898 36.8567 63.5103 30.308 61.4454C27.0328 60.4126 24.3932 59.1861 22.5757 57.8311C20.7554 56.4741 19.7843 55.008 19.7843 53.4975C19.7843 51.987 20.7554 50.5209 22.5757 49.1639C24.3932 47.8089 27.0328 46.5823 30.308 45.5496C36.8567 43.4847 45.9129 42.2052 55.9227 42.2052Z" stroke="white" stroke-width="0.3"/>
<path d="M55.9225 40.186C67.7007 40.186 78.3579 41.6915 86.0654 44.1218C89.9201 45.3372 93.0286 46.7814 95.1702 48.3779C97.3146 49.9765 98.4648 51.7082 98.4648 53.4975C98.4648 55.2868 97.3146 57.0185 95.1702 58.6171C93.0286 60.2136 89.9201 61.6577 86.0654 62.8732C78.3579 65.3035 67.7007 66.809 55.9225 66.809C44.1443 66.809 33.4872 65.3035 25.7796 62.8732C21.925 61.6577 18.8165 60.2136 16.6749 58.6171C14.5305 57.0185 13.3802 55.2868 13.3802 53.4975C13.3802 51.7082 14.5305 49.9765 16.6749 48.3779C18.8165 46.7814 21.925 45.3372 25.7796 44.1218C33.4872 41.6915 44.1443 40.186 55.9225 40.186Z" stroke="white" stroke-width="0.3"/>
<path d="M55.9226 38.1667C69.4691 38.1667 81.7273 39.8983 90.5937 42.694C95.0278 44.0921 98.6052 45.7538 101.071 47.5919C103.539 49.4321 104.869 51.4294 104.869 53.4975C104.869 55.5656 103.539 57.5629 101.071 59.4031C98.6052 61.2412 95.0278 62.9029 90.5937 64.301C81.7273 67.0967 69.4691 68.8283 55.9226 68.8283C42.376 68.8283 30.1179 67.0967 21.2515 64.301C16.8174 62.9029 13.2399 61.2412 10.7743 59.4031C8.30589 57.5629 6.97642 55.5656 6.97642 53.4975C6.97642 51.4294 8.30589 49.4321 10.7743 47.5919C13.2399 45.7538 16.8174 44.0921 21.2515 42.694C30.1179 39.8983 42.376 38.1667 55.9226 38.1667Z" stroke="white" stroke-width="0.3"/>
<path d="M55.9226 36.1475C71.2375 36.1475 85.0966 38.1051 95.1219 41.2662C100.135 42.847 104.182 44.7263 106.971 46.806C109.764 48.8877 111.273 51.1506 111.273 53.4975C111.273 55.8444 109.764 58.1073 106.971 60.189C104.182 62.2687 100.135 64.148 95.1219 65.7288C85.0966 68.8899 71.2375 70.8475 55.9226 70.8475C40.6077 70.8475 26.7486 68.8899 16.7233 65.7288C11.7098 64.148 7.66344 62.2687 4.87372 60.189C2.08127 58.1073 0.572607 55.8444 0.572607 53.4975C0.572607 51.1506 2.08127 48.8877 4.87372 46.806C7.66344 44.7263 11.7098 42.847 16.7233 41.2662C26.7486 38.1051 40.6077 36.1475 55.9226 36.1475Z" stroke="white" stroke-width="0.3"/>
<ellipse cx="55.7231" cy="36.4987" rx="17.5" ry="55.5" transform="rotate(-90 55.7231 36.4987)" fill="black"/>
<path d="M55.7231 29.7679C67.5123 29.7679 77.0693 32.7814 77.0693 36.4987C77.0693 40.216 67.5123 43.2295 55.7231 43.2295C43.934 43.2295 34.377 40.216 34.377 36.4987C34.377 32.7814 43.934 29.7679 55.7231 29.7679Z" fill="#454545"/>
<ellipse cx="55.7231" cy="36.4987" rx="3.36538" ry="10.6731" transform="rotate(-90 55.7231 36.4987)" fill="white"/>
<path d="M55.7232 27.2256C63.9647 27.2256 71.4199 28.2791 76.8097 29.9786C79.5055 30.8287 81.6762 31.8377 83.1697 32.9511C84.666 34.0665 85.4579 35.267 85.4579 36.4987C85.4579 37.7304 84.666 38.9309 83.1697 40.0463C81.6762 41.1597 79.5055 42.1687 76.8097 43.0188C71.4199 44.7183 63.9647 45.7718 55.7232 45.7718C47.4818 45.7718 40.0266 44.7183 34.6367 43.0188C31.9409 42.1687 29.7703 41.1597 28.2768 40.0463C26.7805 38.9309 25.9886 37.7304 25.9886 36.4987C25.9886 35.267 26.7805 34.0665 28.2768 32.9511C29.7703 31.8377 31.9409 30.8287 34.6367 29.9786C40.0266 28.2791 47.4818 27.2256 55.7232 27.2256Z" stroke="white" stroke-width="0.3"/>
<path d="M55.7232 27.2256C63.9647 27.2256 71.4199 28.2791 76.8097 29.9786C79.5055 30.8287 81.6762 31.8377 83.1697 32.9511C84.666 34.0665 85.4579 35.267 85.4579 36.4987C85.4579 37.7304 84.666 38.9309 83.1697 40.0463C81.6762 41.1597 79.5055 42.1687 76.8097 43.0188C71.4199 44.7183 63.9647 45.7718 55.7232 45.7718C47.4818 45.7718 40.0266 44.7183 34.6367 43.0188C31.9409 42.1687 29.7703 41.1597 28.2768 40.0463C26.7805 38.9309 25.9886 37.7304 25.9886 36.4987C25.9886 35.267 26.7805 34.0665 28.2768 32.9511C29.7703 31.8377 31.9409 30.8287 34.6367 29.9786C40.0266 28.2791 47.4818 27.2256 55.7232 27.2256Z" stroke="white" stroke-width="0.3"/>
<path d="M55.723 25.2064C65.7328 25.2064 74.789 26.4859 81.3377 28.5508C84.613 29.5835 87.2526 30.8101 89.0701 32.1651C90.8904 33.5221 91.8615 34.9882 91.8615 36.4987C91.8615 38.0092 90.8904 39.4753 89.0701 40.8323C87.2526 42.1873 84.613 43.4138 81.3377 44.4466C74.789 46.5115 65.7328 47.791 55.723 47.791C45.7132 47.791 36.657 46.5115 30.1083 44.4466C26.8331 43.4138 24.1935 42.1873 22.3759 40.8323C20.5557 39.4753 19.5846 38.0092 19.5846 36.4987C19.5846 34.9882 20.5557 33.5221 22.3759 32.1651C24.1935 30.8101 26.8331 29.5835 30.1083 28.5508C36.657 26.4859 45.7132 25.2064 55.723 25.2064Z" stroke="white" stroke-width="0.3"/>
<path d="M55.7231 23.1871C67.5013 23.1871 78.1584 24.6927 85.866 27.123C89.7206 28.3384 92.8291 29.7826 94.9707 31.3791C97.1151 32.9777 98.2654 34.7094 98.2654 36.4987C98.2654 38.288 97.1151 40.0197 94.9707 41.6183C92.8291 43.2148 89.7206 44.6589 85.866 45.8744C78.1584 48.3047 67.5013 49.8102 55.7231 49.8102C43.9449 49.8102 33.2877 48.3047 25.5802 45.8744C21.7255 44.6589 18.617 43.2148 16.4754 41.6183C14.331 40.0197 13.1808 38.288 13.1808 36.4987C13.1808 34.7094 14.331 32.9777 16.4754 31.3791C18.617 29.7826 21.7255 28.3384 25.5802 27.123C33.2877 24.6927 43.9449 23.1871 55.7231 23.1871Z" stroke="white" stroke-width="0.3"/>
<path d="M55.7231 21.1679C69.2697 21.1679 81.5278 22.8995 90.3942 25.6952C94.8283 27.0933 98.4057 28.755 100.871 30.5931C103.34 32.4333 104.669 34.4306 104.669 36.4987C104.669 38.5668 103.34 40.5641 100.871 42.4042C98.4057 44.2424 94.8283 45.9041 90.3942 47.3022C81.5278 50.0979 69.2697 51.8295 55.7231 51.8295C42.1765 51.8295 29.9184 50.0979 21.052 47.3022C16.6179 45.9041 13.0405 44.2424 10.5748 42.4042C8.10642 40.5641 6.77695 38.5668 6.77695 36.4987C6.77695 34.4306 8.10642 32.4333 10.5748 30.5931C13.0405 28.755 16.6179 27.0933 21.052 25.6952C29.9184 22.8995 42.1765 21.1679 55.7231 21.1679Z" stroke="white" stroke-width="0.3"/>
<path d="M55.7231 19.1487C71.0381 19.1487 84.8972 21.1062 94.9225 24.2674C99.936 25.8482 103.982 27.7275 106.772 29.8072C109.564 31.8889 111.073 34.1518 111.073 36.4987C111.073 38.8456 109.564 41.1085 106.772 43.1902C103.982 45.2699 99.936 47.1492 94.9225 48.73C84.8972 51.8911 71.0381 53.8487 55.7231 53.8487C40.4082 53.8487 26.5491 51.8911 16.5238 48.73C11.5103 47.1492 7.46397 45.2699 4.67426 43.1902C1.88181 41.1085 0.373145 38.8456 0.373145 36.4987C0.373145 34.1518 1.88181 31.8889 4.67426 29.8072C7.46397 27.7275 11.5103 25.8482 16.5238 24.2674C26.5491 21.1062 40.4082 19.1487 55.7231 19.1487Z" stroke="white" stroke-width="0.3"/>
<ellipse cx="55.5" cy="17.5" rx="17.5" ry="55.5" transform="rotate(-90 55.5 17.5)" fill="black"/>
<ellipse cx="55.5" cy="17.5" rx="6.73077" ry="21.3462" transform="rotate(-90 55.5 17.5)" fill="#454545"/>
<ellipse cx="55.5" cy="17.5" rx="3.36538" ry="10.6731" transform="rotate(-90 55.5 17.5)" fill="white"/>
<path d="M55.5001 8.22693C63.7415 8.22693 71.1968 9.28045 76.5866 10.9799C79.2824 11.83 81.4531 12.839 82.9466 13.9524C84.4428 15.0678 85.2347 16.2683 85.2347 17.5C85.2347 18.7317 84.4428 19.9322 82.9466 21.0476C81.4531 22.161 79.2824 23.17 76.5866 24.0201C71.1968 25.7196 63.7415 26.7731 55.5001 26.7731C47.2586 26.7731 39.8034 25.7196 34.4136 24.0201C31.7178 23.17 29.5471 22.161 28.0536 21.0476C26.5574 19.9322 25.7655 18.7317 25.7655 17.5C25.7655 16.2683 26.5574 15.0678 28.0536 13.9524C29.5471 12.839 31.7178 11.83 34.4136 10.9799C39.8034 9.28045 47.2586 8.22693 55.5001 8.22693Z" stroke="white" stroke-width="0.3"/>
<path d="M55.5001 8.22693C63.7415 8.22693 71.1968 9.28045 76.5866 10.9799C79.2824 11.83 81.4531 12.839 82.9466 13.9524C84.4428 15.0678 85.2347 16.2683 85.2347 17.5C85.2347 18.7317 84.4428 19.9322 82.9466 21.0476C81.4531 22.161 79.2824 23.17 76.5866 24.0201C71.1968 25.7196 63.7415 26.7731 55.5001 26.7731C47.2586 26.7731 39.8034 25.7196 34.4136 24.0201C31.7178 23.17 29.5471 22.161 28.0536 21.0476C26.5574 19.9322 25.7655 18.7317 25.7655 17.5C25.7655 16.2683 26.5574 15.0678 28.0536 13.9524C29.5471 12.839 31.7178 11.83 34.4136 10.9799C39.8034 9.28045 47.2586 8.22693 55.5001 8.22693Z" stroke="white" stroke-width="0.3"/>
<path d="M55.4999 6.20769C65.5097 6.20769 74.5659 7.48722 81.1146 9.55212C84.3898 10.5849 87.0294 11.8114 88.847 13.1664C90.6673 14.5234 91.6383 15.9895 91.6383 17.5C91.6383 19.0105 90.6673 20.4766 88.847 21.8336C87.0294 23.1886 84.3898 24.4151 81.1146 25.4479C74.5659 27.5128 65.5097 28.7923 55.4999 28.7923C45.4901 28.7923 36.4339 27.5128 29.8852 25.4479C26.61 24.4151 23.9704 23.1886 22.1528 21.8336C20.3325 20.4766 19.3614 19.0105 19.3614 17.5C19.3614 15.9895 20.3325 14.5234 22.1528 13.1664C23.9704 11.8114 26.61 10.5849 29.8852 9.55212C36.4339 7.48722 45.4901 6.20769 55.4999 6.20769Z" stroke="white" stroke-width="0.3"/>
<path d="M55.4999 4.18846C67.2781 4.18846 77.9353 5.69399 85.6428 8.12431C89.4975 9.33974 92.606 10.7839 94.7476 12.3804C96.892 13.979 98.0422 15.7107 98.0422 17.5C98.0422 19.2893 96.892 21.021 94.7476 22.6196C92.606 24.2161 89.4975 25.6602 85.6428 26.8757C77.9353 29.306 67.2781 30.8115 55.4999 30.8115C43.7217 30.8115 33.0646 29.306 25.357 26.8757C21.5024 25.6602 18.3938 24.2161 16.2522 22.6196C14.1079 21.021 12.9576 19.2893 12.9576 17.5C12.9576 15.7107 14.1079 13.979 16.2522 12.3804C18.3938 10.7839 21.5024 9.33974 25.357 8.12431C33.0646 5.69399 43.7217 4.18846 55.4999 4.18846Z" stroke="white" stroke-width="0.3"/>
<path d="M55.5 2.16924C69.0465 2.16924 81.3046 3.90078 90.1711 6.6965C94.6052 8.09464 98.1826 9.75633 100.648 11.5944C103.117 13.4346 104.446 15.4319 104.446 17.5C104.446 19.5681 103.117 21.5654 100.648 23.4056C98.1826 25.2437 94.6052 26.9054 90.1711 28.3035C81.3046 31.0992 69.0465 32.8308 55.5 32.8308C41.9534 32.8308 29.6953 31.0992 20.8288 28.3035C16.3948 26.9054 12.8173 25.2437 10.3517 23.4056C7.88328 21.5654 6.55381 19.5681 6.55381 17.5C6.55381 15.4319 7.88328 13.4346 10.3517 11.5944C12.8173 9.75633 16.3948 8.09464 20.8288 6.6965C29.6953 3.90078 41.9534 2.16924 55.5 2.16924Z" stroke="white" stroke-width="0.3"/>
<path d="M55.5 0.150002C70.8149 0.150002 84.674 2.10756 94.6993 5.26869C99.7128 6.84953 103.759 8.72877 106.549 10.8085C109.341 12.8902 110.85 15.1531 110.85 17.5C110.85 19.8469 109.341 22.1098 106.549 24.1915C103.759 26.2712 99.7128 28.1505 94.6993 29.7313C84.674 32.8924 70.8149 34.85 55.5 34.85C40.1851 34.85 26.326 32.8924 16.3007 29.7313C11.2872 28.1505 7.24083 26.2712 4.45112 24.1915C1.65866 22.1098 0.15 19.8469 0.15 17.5C0.15 15.1531 1.65866 12.8902 4.45112 10.8085C7.24083 8.72877 11.2872 6.84953 16.3007 5.26869C26.326 2.10756 40.1851 0.150002 55.5 0.150002Z" stroke="white" stroke-width="0.3"/>
</svg>
